<svg width="181" height="97" viewBox="0 0 181 97" fill="none" xmlns="http://www.w3.org/2000/svg">
<path d="M71.3108 1.02417H124.246C124.246 6.38151 124.246 11.7389 124.246 17.0962C124.246 22.4535 124.246 27.8109 124.246 33.1682C124.246 38.5256 124.246 43.9254 124.246 49.3678C124.246 57.1912 124.246 65.0572 124.246 72.9656C124.246 80.8741 124.246 88.7825 124.246 96.691H71.3108C71.3108 91.5037 71.3108 86.3165 71.3108 81.1292C71.3108 75.9419 71.3108 70.7547 71.3108 65.5674C71.3108 65.4824 71.2683 65.4398 71.1832 65.4398C71.1832 65.3548 71.1407 65.3123 71.0557 65.3123H53.5805C53.4955 65.3123 53.453 65.3548 53.453 65.4398C53.453 65.4398 53.453 65.4824 53.453 65.5674C53.453 70.7547 53.453 75.9419 53.453 81.1292C53.453 86.3165 53.453 91.5037 53.453 96.691H0.517334C0.517334 91.5888 0.517334 86.4865 0.517334 81.3843C0.517334 76.2821 0.517334 71.1799 0.517334 66.0776C0.517334 60.9754 0.517334 55.8732 0.517334 50.7709C0.517334 45.6687 0.517334 40.5665 0.517334 35.4642C0.517334 30.362 0.517334 25.2598 0.517334 20.1575C0.517334 16.9261 0.517334 13.7372 0.517334 10.5909C0.517334 7.35944 0.517334 4.17055 0.517334 1.02417H53.453C53.453 5.10596 53.453 9.23026 53.453 13.3971C53.453 17.5639 53.453 21.7307 53.453 25.8976C53.453 29.9793 53.453 34.1036 53.453 38.2705C53.453 38.3555 53.453 38.4405 53.453 38.5256C53.453 38.5256 53.4955 38.5256 53.5805 38.5256H71.0557C71.1407 38.5256 71.1832 38.5256 71.1832 38.5256C71.2683 38.4405 71.3108 38.3555 71.3108 38.2705C71.3108 32.0627 71.3108 25.855 71.3108 19.6473C71.3108 13.4396 71.3108 7.23189 71.3108 1.02417Z" fill="#E96709"/>
<path d="M155.625 0.544922C158.861 0.544922 161.926 1.10567 164.814 2.23047L165.36 2.44043C168.071 3.51723 170.472 5.05151 172.56 7.04395L172.972 7.44043C175.005 9.44697 176.605 11.8336 177.772 14.5957H177.771C179.064 17.5505 179.706 20.8642 179.706 24.5293C179.706 28.1949 179.063 31.5292 177.771 34.5254L177.772 34.5264C176.528 37.4721 174.791 40.0119 172.562 42.1396C170.337 44.2647 167.755 45.8893 164.821 47.0156L164.822 47.0166C161.931 48.1434 158.864 48.7061 155.625 48.7061C152.386 48.706 149.32 48.1433 146.429 47.0166C143.538 45.89 140.979 44.264 138.754 42.1396C136.527 40.0131 134.769 37.4756 133.48 34.5322L133.479 34.5303C132.187 31.5331 131.545 28.1966 131.545 24.5293C131.545 20.8623 132.187 17.5468 133.48 14.5908C134.769 11.6467 136.528 9.12908 138.757 7.04395C140.981 4.92123 143.539 3.31707 146.429 2.2334L146.973 2.0293C149.704 1.03908 152.589 0.544952 155.625 0.544922ZM155.625 4.3252C152.036 4.32524 148.732 5.17762 145.705 6.88086L145.703 6.88184C142.722 8.54167 140.337 10.885 138.544 13.9209L138.542 13.9229C136.759 16.9017 135.858 20.4318 135.858 24.5293C135.858 27.5807 136.373 30.3486 137.395 32.8379C138.42 35.3347 139.848 37.4934 141.68 39.3193H141.679C143.512 41.1054 145.623 42.4963 148.013 43.4941H148.012C150.397 44.448 152.934 44.9257 155.625 44.9258C158.316 44.9258 160.852 44.4477 163.237 43.4941C165.627 42.4962 167.715 41.1045 169.505 39.3193C171.336 37.4934 172.765 35.3347 173.79 32.8379L173.793 32.8311C174.857 30.3435 175.393 27.5782 175.393 24.5293C175.393 21.4802 174.857 18.7375 173.794 16.2939L173.79 16.2852C172.829 13.945 171.514 11.9213 169.847 10.209L169.505 9.86719C167.717 8.08341 165.631 6.71409 163.244 5.75879C160.857 4.80353 158.318 4.3252 155.625 4.3252ZM156.41 10.6201C158.516 10.6201 160.339 11.0125 161.859 11.8203C162.79 12.3147 163.659 12.8873 164.467 13.5381C165.479 14.3542 165.478 15.8119 164.661 16.7334C163.769 17.7396 162.275 17.7619 161.244 17.0205C160.761 16.6731 160.281 16.3784 159.804 16.1357L159.796 16.1318C158.912 15.6622 157.875 15.42 156.673 15.4199C154.079 15.4199 152.048 16.2707 150.531 17.9482C149.005 19.6363 148.228 21.8167 148.228 24.5293C148.228 27.6001 148.972 29.9708 150.408 31.6934L150.69 32.0049C152.133 33.5142 154.025 34.2763 156.41 34.2764C157.921 34.2764 159.196 33.9915 160.251 33.4395C160.85 33.1153 161.438 32.7564 162.015 32.3643C163.093 31.6309 164.617 31.7962 165.415 32.8936C166.14 33.8914 165.982 35.3208 164.938 36.0557C163.98 36.7295 162.974 37.3371 161.92 37.8789L161.916 37.8809C160.311 38.6853 158.382 39.0771 156.148 39.0771C153.634 39.0771 151.332 38.5079 149.254 37.3633L149.247 37.3594C147.167 36.1695 145.517 34.4934 144.3 32.3418L144.298 32.3389C143.075 30.1331 142.474 27.5238 142.474 24.5293C142.474 21.6949 143.124 19.2268 144.442 17.1445C145.749 15.039 147.466 13.4306 149.591 12.3291C151.707 11.1898 153.982 10.6202 156.41 10.6201Z" fill="#E96709" stroke="#E96709" stroke-width="0.910694"/>
</svg>
